<svg xmlns="http://www.w3.org/2000/svg" viewBox="0 0 800 320" width="800" height="320" preserveAspectRatio="xMidYMid slice">
  <defs>
    <linearGradient id="bg" x1="0" y1="0" x2="1" y2="1"><stop offset="0" stop-color="#fef3c7"/><stop offset="1" stop-color="#fde68a"/></linearGradient>
  </defs>
  <rect width="800" height="320" fill="url(#bg)"/>
  <circle cx="90" cy="40" r="140" fill="rgba(255,255,255,0.45)"/>
  <circle cx="730" cy="60" r="110" fill="rgba(255,255,255,0.35)"/>
    <rect x="0" y="252" width="800" height="68" fill="#cbd5e1"/><rect x="0" y="252" width="800" height="8" fill="#94a3b8"/>
    <rect x="470" y="34" width="268" height="176" rx="14" fill="#fff" stroke="#e2e8f0" stroke-width="4"/>
    <g transform="translate(548 108) rotate(-90)">
      <circle r="17" fill="none" stroke="#3b82f6" stroke-width="34" stroke-dasharray="48 58.8"/>
      <circle r="17" fill="none" stroke="#fb923c" stroke-width="34" stroke-dasharray="32 74.8" stroke-dashoffset="-48"/>
      <circle r="17" fill="none" stroke="#14b8a6" stroke-width="34" stroke-dasharray="26.8 80" stroke-dashoffset="-80"/>
    </g>
    <path d="M604 168 H720" stroke="#cbd5e1" stroke-width="3"/>
    <rect x="614" y="128" width="18" height="40" rx="3" fill="#3b82f6"/><rect x="638" y="104" width="18" height="64" rx="3" fill="#fb923c"/><rect x="662" y="118" width="18" height="50" rx="3" fill="#3b82f6"/><rect x="686" y="84" width="18" height="84" rx="3" fill="#fb923c"/>
    <rect x="608" y="54" width="100" height="9" rx="4" fill="#e2e8f0"/><rect x="608" y="70" width="64" height="9" rx="4" fill="#f1f5f9"/>
    <g transform="translate(690 178)"><circle r="16" fill="none" stroke="#1e3a8a" stroke-width="5"/><path d="M12 12 L26 26" stroke="#1e3a8a" stroke-width="6" stroke-linecap="round"/></g>
    <circle cx="70" cy="58" r="6" fill="#f59e0b" opacity="0.5"/><circle cx="96" cy="58" r="6" fill="#f59e0b" opacity="0.5"/><circle cx="122" cy="58" r="9" fill="#fb923c" opacity="1"/><circle cx="148" cy="58" r="6" fill="#f59e0b" opacity="0.5"/><circle cx="174" cy="58" r="6" fill="#f59e0b" opacity="0.5"/><circle cx="200" cy="58" r="6" fill="#f59e0b" opacity="0.5"/><circle cx="70" cy="84" r="6" fill="#f59e0b" opacity="0.5"/><circle cx="96" cy="84" r="9" fill="#fb923c" opacity="1"/><circle cx="122" cy="84" r="6" fill="#f59e0b" opacity="0.5"/><circle cx="148" cy="84" r="6" fill="#f59e0b" opacity="0.5"/><circle cx="174" cy="84" r="6" fill="#f59e0b" opacity="0.5"/><circle cx="200" cy="84" r="6" fill="#f59e0b" opacity="0.5"/><circle cx="70" cy="110" r="9" fill="#fb923c" opacity="1"/><circle cx="96" cy="110" r="6" fill="#f59e0b" opacity="0.5"/><circle cx="122" cy="110" r="6" fill="#f59e0b" opacity="0.5"/><circle cx="148" cy="110" r="6" fill="#f59e0b" opacity="0.5"/><circle cx="174" cy="110" r="6" fill="#f59e0b" opacity="0.5"/><circle cx="200" cy="110" r="9" fill="#fb923c" opacity="1"/>
    
  <g transform="translate(300 168) scale(1.2)">
    <rect x="-25" y="6" width="50" height="86" rx="24" fill="#1e3a8a"/>
    <rect x="-8" y="-8" width="16" height="20" rx="6" fill="#f1c8a5"/>
    <circle cy="-26" r="22" fill="#f1c8a5"/>
    <path d="M-23 -28 a23 23 0 0 1 46 0 q-23 -15 -46 0z" fill="#4b2e1a"/>
    
  </g>
    
  <g transform="translate(392 250) scale(1.05)">
    <rect x="-56" y="-72" width="112" height="72" rx="7" fill="#1e3a8a"/>
    <rect x="-49" y="-65" width="98" height="58" rx="3" fill="#f8fafc"/>
    <g transform="translate(0 0)"><rect x="-40" y="-26" width="12" height="18" rx="2" fill="#3b82f6"/><rect x="-24" y="-38" width="12" height="30" rx="2" fill="#fb923c"/><rect x="-8" y="-32" width="12" height="24" rx="2" fill="#3b82f6"/><rect x="8" y="-48" width="12" height="40" rx="2" fill="#14b8a6"/><rect x="24" y="-40" width="12" height="32" rx="2" fill="#3b82f6"/></g>
    <path d="M-70 0 H70 L62 12 H-62Z" fill="#94a3b8"/>
  </g>
    <rect x="70" y="214" width="70" height="38" rx="4" fill="#fff"/><rect x="76" y="204" width="70" height="10" rx="3" fill="#3b82f6"/><rect x="82" y="190" width="58" height="14" rx="3" fill="#14b8a6"/>
    <g transform="translate(736 232)"><rect x="-14" y="0" width="28" height="22" rx="4" fill="#b45309"/><path d="M0 0 C-30 -20 -22 -50 0 -34 C22 -50 30 -20 0 0Z" fill="#22c55e"/></g></svg>
